# xmcd
#
# Track frame offsets:
#	150
#	19608
#	42969
#	69128
#	86460
#	103218
#	128857
#	160252
#	176570
#
# Disc length: 2632 seconds
#
# Revision: 1
# Processed by: cddbd v1.5.2PL0 Copyright (c) Steve Scherf et al.
# Submitted via: audiograbber 1.83.01
#
DISCID=6a0a4609
DTITLE=John Mayall  - Back To The Roots CD1
DYEAR=1900
DGENRE=
TTITLE0=prisons on the road
TTITLE1=My Children
TTITLE2=Accidental Suicide
TTITLE3=Groupie Girl
TTITLE4=Blue Fox
TTITLE5=Home Again
TTITLE6=television eye
TTITLE7=Marriage Madness
TTITLE8=Looking At Tomorrow
EXTD=
EXTT0=
EXTT1=
EXTT2=
EXTT3=
EXTT4=
EXTT5=
EXTT6=
EXTT7=
EXTT8=
PLAYORDER=
